<?xml version="1.0" encoding="UTF-8" standalone="no"?>
<svg
   width="2000"
   height="2000"
   viewBox="0 0 2000 2000"
   version="1.1"
   id="svg16"
   sodipodi:docname="logo_SE-OP_RVB_BLACK.svg"
   inkscape:version="1.2.2 (b0a8486541, 2022-12-01)"
   xmlns:inkscape="http://www.inkscape.org/namespaces/inkscape"
   xmlns:sodipodi="http://sodipodi.sourceforge.net/DTD/sodipodi-0.dtd"
   xmlns="http://www.w3.org/2000/svg"
   xmlns:svg="http://www.w3.org/2000/svg">
  <defs
     id="defs20" />
  <sodipodi:namedview
     id="namedview18"
     pagecolor="#ffffff"
     bordercolor="#000000"
     borderopacity="0.25"
     inkscape:showpageshadow="2"
     inkscape:pageopacity="0.0"
     inkscape:pagecheckerboard="0"
     inkscape:deskcolor="#d1d1d1"
     showgrid="false"
     inkscape:zoom="0.26405822"
     inkscape:cx="-196.92627"
     inkscape:cy="1145.5807"
     inkscape:window-width="1920"
     inkscape:window-height="1011"
     inkscape:window-x="0"
     inkscape:window-y="32"
     inkscape:window-maximized="1"
     inkscape:current-layer="svg16" />
  <g
     id="g256"
     transform="translate(1.0939752e-4,345.00406)">
    <path
       d="m 1687.29,463.62 c 0.66,0.68 1.77,0.64 2.38,-0.09 11.76,-14.09 22.38,-27.79 31.83,-41.08 0.51,-0.71 0.48,-1.67 -0.05,-2.36 C 1554.68,203.35 1292.72,63.64 998.11,63.64 624.15,63.64 302.75,288.68 161.94,610.73 139.78,661.4 131.9,717.04 144.86,691.78 302.61,384.29 625.46,173.54 998.11,173.54 c 270.77,0 515.22,111.28 689.18,290.08 z"
       id="path2" />
    <path
       d="m 1779.86,574.42 c 26.79,37.41 50.28,75.75 71.53,117.44 12.51,24.55 5.11,-30.17 -16.97,-80.72 -8.97,-20.53 -18.69,-40.66 -29.09,-60.38 54.84,-51.87 98.45,-99.46 130.31,-142.24 30.6,-41.1 50.52,-78.16 59.2,-110.16 10.09,-37.2 5.37,-67.88 -14.04,-91.18 -19.41,-23.3 -52.63,-38.17 -98.74,-44.22 -39.67,-5.2 -89.24,-3.74 -147.34,4.34 -32.2,4.48 -67.17,10.98 -104.81,19.48 -25.8,5.83 -44.19,16 -27.1,14.84 93.71,-6.33 177.38,9.61 208.73,44.87 97.89,110.1 -105.83,312.61 -439.64,575.5 -19.2,-17.52 -43.1,-29.14 -69.41,-33.43 -35.77,-5.83 -71.62,2.58 -100.95,23.69 -54.75,39.4 -71.35,112.37 -41.96,170.82 -101.75,73.67 -213.15,149.45 -332.6,225.88 -113.95,72.92 -194.14,131.06 -109.51,84.14 164.55,-91.23 321.41,-184.64 465.55,-276.91 26.11,27.18 61.76,41.53 97.85,41.53 27.41,0 55.07,-8.27 78.97,-25.47 29.33,-21.11 48.7,-52.43 54.54,-88.19 4.27,-26.17 0.9,-52.37 -9.47,-76.05 99.42,-69.48 189.65,-137.21 268.33,-201.68 38.91,-31.88 74.46,-62.54 106.63,-91.91 z m -440.78,425.53 c -0.89,0.67 -2.17,0.46 -2.82,-0.44 l -111.17,-154.5 c -0.65,-0.9 -0.44,-2.18 0.47,-2.81 43.38,-29.88 103.1,-19.66 134,23.29 30.91,42.95 21.62,102.82 -20.49,134.46 z"
       id="path4" />
    <path
       d="M 101.12,899.15 C 64.16,889.07 47.68,877.24 47.68,860.77 c 0,-20.04 18.87,-33.5 46.95,-33.5 21.95,0 45.1,7.79 63.53,21.38 1.28,0.95 2.91,1.29 4.47,0.95 1.56,-0.35 2.89,-1.35 3.66,-2.75 l 13.48,-24.76 c 1.3,-2.38 0.67,-5.35 -1.49,-7.05 -22.9,-18.06 -52.61,-28 -83.64,-28 -28.02,0 -51.38,7.47 -67.54,21.61 -15.3,13.38 -23.38,31.79 -23.38,53.25 0,37.74 22.93,61.17 74.34,75.96 46.72,13.4 65.77,26.36 65.77,44.73 0,21.03 -20.04,34.62 -51.06,34.62 -25.22,0 -49.75,-9.42 -70.93,-27.25 -1.34,-1.12 -3.08,-1.55 -4.78,-1.18 -1.69,0.38 -3.08,1.49 -3.81,3.06 l -12.74,27.42 c -1.06,2.28 -0.43,5 1.52,6.63 24.03,20.04 57.11,31.54 90.74,31.54 28.98,0 53.28,-7.55 70.29,-21.84 15.96,-13.41 24.75,-32.5 24.75,-53.77 0,-40.66 -26.73,-66.16 -86.68,-82.69 z"
       id="path6" />
    <path
       d="m 1973.4,814.72 c -17.47,-15.54 -42.04,-23.76 -71.05,-23.76 h -84.64 c -3.05,0 -5.54,2.49 -5.54,5.54 v 27.29 c 0,3.05 2.49,5.54 5.54,5.54 h 84.64 c 32.61,0 53.68,18.87 53.68,48.07 0,29.2 -21.07,48.07 -53.68,48.07 h -84.64 c -3.05,0 -5.54,2.49 -5.54,5.54 v 116.96 c 0,3.06 2.49,5.54 5.54,5.54 h 32.89 c 3.06,0 5.54,-2.49 5.54,-5.54 v -79.59 c 0,-2.5 2.04,-4.54 4.54,-4.54 h 41.67 c 29,0 53.57,-8.22 71.05,-23.76 17.4,-15.48 26.6,-37.16 26.6,-62.68 0,-25.52 -9.2,-47.2 -26.6,-62.68 z"
       id="path8" />
    <rect
       x="583.81"
       y="790.96002"
       width="165.41"
       height="38.369999"
       rx="5.54"
       ry="5.54"
       id="rect10" />
    <path
       d="m 749.21,1047.98 v -27.28 c 0,-3.06 -2.49,-5.54 -5.54,-5.54 H 632.31 c -2.5,0 -4.54,-2.04 -4.54,-4.54 v -67.64 c 0,-2.5 2.04,-4.54 4.54,-4.54 h 111.36 c 3.05,0 5.54,-2.49 5.54,-5.54 v -27.29 c 0,-3.05 -2.49,-5.54 -5.54,-5.54 H 589.34 c -3.05,0 -5.54,2.49 -5.54,5.54 v 142.37 c 0,3.06 2.49,5.54 5.54,5.54 h 154.33 c 3.05,0 5.54,-2.49 5.54,-5.54 z"
       id="path12" />
    <path
       d="m 93.57,107.41 65.13,21.14 c 3.67,1.19 6.55,4.07 7.75,7.75 l 21.14,65.13 c 1.55,4.76 8.28,4.76 9.83,0 l 21.14,-65.13 c 1.19,-3.67 4.07,-6.55 7.75,-7.75 l 65.13,-21.14 c 4.76,-1.55 4.76,-8.28 0,-9.83 L 226.31,76.44 c -3.67,-1.19 -6.55,-4.07 -7.75,-7.75 L 197.41,3.57 c -1.55,-4.76 -8.28,-4.76 -9.83,0 L 166.44,68.7 c -1.19,3.67 -4.07,6.55 -7.75,7.75 L 93.56,97.59 c -4.76,1.55 -4.76,8.28 0,9.83 z"
       id="path14" />
  </g>
</svg>
